<?xml version="1.0" encoding="UTF-8" standalone="no"?>
<!DOCTYPE svg PUBLIC "-//W3C//DTD SVG 1.1//EN" "http://www.w3.org/Graphics/SVG/1.1/DTD/svg11.dtd">
<svg width="100%" height="100%" viewBox="0 0 3666 1339" version="1.1" xmlns="http://www.w3.org/2000/svg" xmlns:xlink="http://www.w3.org/1999/xlink" xml:space="preserve" xmlns:serif="http://www.serif.com/" style="fill-rule:evenodd;clip-rule:evenodd;stroke-linejoin:round;stroke-miterlimit:2;">
    <g id="Nero" transform="matrix(1.03836,0,0,1.00029,-278.623,-99.8617)">
        <rect x="268.331" y="99.832" width="3530.58" height="1338.61" style="fill:none;"/>
        <g transform="matrix(0.999937,0,0,0.999706,0.0169961,0.0293612)">
            <g transform="matrix(0.9868,0,0,1.02459,111.359,-13.5159)">
                <path d="M565.693,301.019C565.693,223.915 513.461,170.44 432.627,166.088C407.133,164.844 380.395,164.222 355.523,164.222L209.399,164.222L209.399,176.658C241.733,181.633 241.111,223.294 241.111,276.147L241.111,467.041C241.111,521.137 242.355,560.311 209.399,566.529L209.399,578.965C246.085,577.722 280.906,577.722 314.484,577.722C339.978,577.722 365.472,578.343 389.1,578.965L389.1,566.529C358.01,558.446 356.767,524.247 356.767,467.041L356.767,248.787C366.715,247.544 377.286,246.922 385.991,246.922C425.165,246.922 449.415,268.063 449.415,296.666C449.415,330.866 432.005,348.898 397.806,348.898C391.588,348.898 387.235,347.032 383.504,345.789L371.068,350.141L395.318,436.572C405.267,438.438 417.703,440.925 426.409,440.925C515.948,440.925 565.693,386.828 565.693,301.019Z" style="fill-rule:nonzero;"/>
                <path d="M1014.01,578.343L1014.01,565.907C1003.44,562.177 996.602,555.958 986.032,538.548L897.736,391.181C940.64,370.039 961.16,337.705 961.16,295.423C961.16,235.73 925.717,191.582 866.024,173.549C839.286,165.466 803.222,164.222 758.452,164.222L601.135,164.222L601.135,176.658C633.469,181.633 632.847,222.05 632.847,276.147L632.847,467.041C632.847,521.759 633.469,560.311 601.135,566.529L601.135,578.965C632.226,578.343 663.316,577.722 691.919,577.722C722.387,577.722 752.855,578.343 781.458,578.965L781.458,566.529C750.368,560.933 748.503,527.356 748.503,467.041L748.503,248.166L771.51,248.166C797.625,248.166 818.145,251.275 833.068,268.063C840.53,276.769 844.882,289.205 844.882,297.288C844.882,315.942 841.773,330.244 825.606,343.302C810.683,355.116 787.055,360.09 767.779,358.847L762.804,365.065L854.209,525.49C880.947,572.125 895.87,583.318 954.32,583.318C974.218,583.318 993.493,583.318 1014.01,578.343Z" style="fill-rule:nonzero;"/>
                <path d="M1487.21,371.283C1487.21,284.852 1439.33,210.236 1364.09,174.793C1328.02,157.382 1293.83,153.652 1256.52,153.652C1218.59,153.652 1184.39,157.382 1148.32,174.793C1073.08,210.236 1025.83,284.852 1025.83,371.283C1025.83,458.335 1073.71,532.952 1148.32,568.395C1183.77,585.183 1218.59,589.536 1256.52,589.536C1294.45,589.536 1328.65,585.183 1364.09,568.395C1438.7,532.952 1487.21,458.335 1487.21,371.283ZM1369.06,371.283C1369.06,444.656 1318.7,497.509 1256.52,497.509C1194.96,497.509 1143.97,445.277 1143.97,371.283C1143.97,297.288 1194.96,245.678 1256.52,245.678C1318.7,245.678 1369.06,297.91 1369.06,371.283Z" style="fill-rule:nonzero;"/>
                <path d="M2002.68,371.283C2002.68,284.852 1954.8,210.236 1879.56,174.793C1843.5,157.382 1809.3,153.652 1771.99,153.652C1734.06,153.652 1699.86,157.382 1663.8,174.793C1588.56,210.236 1541.3,284.852 1541.3,371.283C1541.3,458.335 1589.18,532.952 1663.8,568.395C1699.24,585.183 1734.06,589.536 1771.99,589.536C1809.92,589.536 1844.12,585.183 1879.56,568.395C1954.18,532.952 2002.68,458.335 2002.68,371.283ZM1884.54,371.283C1884.54,444.656 1834.17,497.509 1771.99,497.509C1710.43,497.509 1659.44,445.277 1659.44,371.283C1659.44,297.288 1710.43,245.678 1771.99,245.678C1834.17,245.678 1884.54,297.91 1884.54,371.283Z" style="fill-rule:nonzero;"/>
                <path d="M2353.38,274.903L2353.38,164.222L2046.21,164.222L2046.21,176.658C2077.92,182.876 2077.92,221.428 2077.92,276.147L2077.92,466.419C2077.92,520.516 2077.92,562.177 2046.21,565.907L2046.21,578.965C2081.03,577.722 2110.88,577.722 2136.37,577.722C2164.35,577.722 2195.44,578.343 2225.91,578.965L2225.91,565.907C2196.06,562.177 2193.58,524.868 2193.58,466.419L2193.58,404.86L2237.1,404.86C2281.25,404.86 2297.42,402.995 2314.83,431.598L2326.64,431.598C2326.64,407.969 2326.02,382.475 2326.02,358.847C2326.02,335.218 2326.64,309.724 2326.64,286.718L2314.83,286.718C2302.39,312.833 2287.47,315.32 2240.83,315.32L2193.58,315.32L2193.58,253.762L2283.11,253.762C2316.07,253.762 2329.75,254.384 2340.94,274.903L2353.38,274.903Z" style="fill-rule:nonzero;"/>
            </g>
            <g transform="matrix(0.963121,0,0,1,660.391,491.296)">
                <path d="M235.515,368.131L235.515,276.147C235.515,222.05 235.515,181.633 203.181,176.658L203.181,164.222L356.767,164.222C394.075,164.222 428.274,164.844 459.364,173.549C553.256,199.665 613.571,275.525 613.571,370.039C613.571,457.092 566.936,526.112 488.589,558.446C444.441,576.478 400.915,578.965 356.767,578.965L203.181,578.965L203.181,566.529C224.542,562.832 231.791,544.48 234.251,516.672C240.559,508.026 247.4,499.352 254.768,490.903C282.653,458.956 331.249,454.814 356.752,474.292L358.488,475.618C360.026,477.349 361.888,478.78 364.141,479.935L367.006,482.123L367.757,481.442C372.659,483.085 379.009,483.829 387.235,483.829C423.835,483.829 451.484,471.231 469.668,449.885C475.597,450.199 481.116,451.003 485.978,452.395L538.7,467.494L501.681,427.031C498.035,423.046 493.75,418.858 488.906,414.623C493.237,401.16 495.429,386.166 495.429,370.039C495.429,342.058 483.614,310.346 464.339,287.961C440.71,260.602 413.351,254.384 375.421,254.384C367.959,254.384 358.632,255.006 351.17,255.627L351.17,347.047L326.03,348.062C305.471,348.893 286.8,357.896 270.648,368.756L301.774,329.5L235.515,368.131ZM351.17,398.893L351.17,427.867C351.17,431.132 351.17,434.229 351.188,437.164C345.322,435.266 339.126,433.894 332.726,433.068C333.061,432.809 333.385,432.538 333.698,432.254C335.555,430.569 337.015,428.429 337.885,425.976C338.386,424.571 338.689,423.076 338.762,421.527C338.838,419.977 338.68,418.46 338.317,417.013C337.686,414.488 336.439,412.218 334.752,410.362C333.067,408.505 330.928,407.045 328.474,406.175C327.678,405.891 326.853,405.67 326.005,405.519C332.847,403.223 341.227,400.555 351.17,398.893ZM235.515,466.077L235.515,464.787C236.582,464.157 237.653,463.535 238.73,462.921C237.641,463.946 236.569,464.998 235.515,466.077ZM283.224,397.568L284.967,401.721C284.987,401.751 288.233,405.603 288.233,405.603L288.496,405.79C281.72,406.718 274.774,408.072 267.736,409.819C272.522,405.813 277.691,401.596 283.224,397.568Z"/>
                <path d="M1038.26,578.343L1038.26,565.907C1027.69,562.177 1020.85,555.958 1010.28,538.548L921.986,391.181C964.89,370.039 985.41,337.705 985.41,295.423C985.41,235.73 949.967,191.582 890.274,173.549C863.536,165.466 827.472,164.222 782.702,164.222L625.386,164.222L625.386,176.658C657.719,181.633 657.098,222.05 657.098,276.147L657.098,467.041C657.098,521.759 657.719,560.311 625.386,566.529L625.386,578.965C656.476,578.343 687.566,577.722 716.169,577.722C746.637,577.722 777.106,578.343 805.709,578.965L805.709,566.529C774.619,560.933 772.753,527.356 772.753,467.041L772.753,248.166L795.76,248.166C821.876,248.166 842.395,251.275 857.318,268.063C864.78,276.769 869.133,289.205 869.133,297.288C869.133,315.942 866.024,330.244 849.857,343.302C834.934,355.116 811.305,360.09 792.029,358.847L787.055,365.065L878.46,525.49C905.197,572.125 920.121,583.318 978.57,583.318C998.468,583.318 1017.74,583.318 1038.26,578.343Z" style="fill-rule:nonzero;"/>
                <path d="M1466.06,578.965L1466.06,566.529C1456.74,555.337 1443.68,534.195 1435.6,516.163L1262.11,139.972L1248.43,139.972L1063.13,521.759C1055.05,537.926 1048.83,553.471 1036.4,566.529L1036.4,578.965C1055.05,577.722 1073.08,577.722 1088.63,577.722C1115.37,577.722 1145.84,578.343 1178.79,578.965L1178.79,566.529C1165.11,560.933 1165.11,558.446 1165.11,549.74C1165.11,547.875 1166.36,543.522 1166.98,542.279L1176.3,515.541L1318.7,515.541L1324.29,532.952C1326.16,539.17 1327.4,550.362 1327.4,552.849C1327.4,560.311 1321.81,564.664 1313.72,566.529L1313.72,578.965C1343.57,578.343 1373.41,577.722 1400.78,577.722C1421.92,577.722 1444.92,578.343 1466.06,578.965ZM1290.72,431.598L1203.66,431.598L1250.3,326.513L1290.72,431.598Z" style="fill-rule:nonzero;"/>
                <path d="M1838.53,552.849L1838.53,371.283L1691.16,371.283L1691.16,383.719C1718.52,388.072 1722.87,411.078 1722.87,449.008L1722.87,483.829C1710.43,490.047 1693.64,497.509 1661.93,497.509C1606.59,497.509 1558.71,457.714 1558.71,370.661C1558.71,338.327 1568.66,305.993 1582.34,287.339C1604.11,257.493 1638.3,245.678 1684.32,245.678C1732.2,245.678 1762.04,257.493 1789.4,285.474L1803.08,285.474L1803.08,164.222L1789.4,164.222C1786.29,168.575 1782.56,174.171 1775.72,174.171C1762.66,174.171 1722.25,153.652 1678.1,153.652C1618.41,153.652 1569.28,160.491 1520.78,200.909C1469.8,242.569 1440.57,310.968 1440.57,370.661C1440.57,490.669 1516.43,589.536 1660.07,589.536C1730.33,589.536 1785.05,582.074 1838.53,552.849Z" style="fill-rule:nonzero;"/>
                <path d="M2319.18,371.283C2319.18,284.852 2271.3,210.236 2196.06,174.793C2160,157.382 2125.8,153.652 2088.49,153.652C2050.56,153.652 2016.36,157.382 1980.3,174.793C1905.06,210.236 1857.8,284.852 1857.8,371.283C1857.8,458.335 1905.68,532.952 1980.3,568.395C2015.74,585.183 2050.56,589.536 2088.49,589.536C2126.42,589.536 2160.62,585.183 2196.06,568.395C2270.68,532.952 2319.18,458.335 2319.18,371.283ZM2201.04,371.283C2201.04,444.656 2150.67,497.509 2088.49,497.509C2026.93,497.509 1975.94,445.277 1975.94,371.283C1975.94,297.288 2026.93,245.678 2088.49,245.678C2150.67,245.678 2201.04,297.91 2201.04,371.283Z" style="fill-rule:nonzero;"/>
                <path d="M2770.61,176.658L2770.61,164.222C2741.38,164.844 2712.16,165.466 2685.42,165.466C2661.79,165.466 2634.43,164.844 2605.21,164.222L2605.21,176.658C2634.43,187.851 2633.81,217.076 2633.81,276.147L2633.81,381.853L2375.76,154.273L2360.22,154.273L2360.22,467.041C2360.22,521.759 2360.84,560.933 2328.51,566.529L2328.51,578.965C2356.49,578.343 2385.09,577.722 2414.32,577.722C2440.43,577.722 2468.41,578.343 2495.77,578.965L2495.77,566.529C2469.03,558.446 2465.93,529.843 2465.93,495.022C2465.93,486.938 2466.55,475.746 2466.55,467.041L2466.55,363.821L2723.35,588.292L2740.14,588.292L2740.14,276.147C2740.14,221.428 2740.14,181.633 2770.61,176.658Z" style="fill-rule:nonzero;"/>
                <path d="M3069.07,447.143C3069.07,396.155 3033.63,353.251 2968.34,324.648C2943.47,314.077 2919.84,301.641 2899.94,287.961C2893.1,283.608 2891.86,276.769 2891.86,268.685C2891.86,260.602 2898.08,250.653 2906.16,244.435C2918.6,235.108 2931.03,236.351 2943.47,236.351C2977.67,236.351 3010.62,251.275 3033.01,282.987L3047.31,282.987L3047.31,164.222L3033.01,164.222C3029.28,165.466 3023.06,167.953 3016.84,167.953C3004.41,167.953 2977.05,154.273 2917.35,154.273C2840.25,154.273 2783.67,201.53 2783.67,281.743C2783.67,315.32 2802.94,351.385 2827.81,365.065C2866.37,386.206 2902.43,406.726 2933.52,426.002C2952.18,437.194 2963.99,442.79 2963.99,465.797C2963.99,488.182 2941.6,504.971 2898.7,504.971C2844.6,504.971 2812.89,490.047 2788.64,458.335L2776.83,460.201L2788.64,565.907C2825.33,578.343 2864.5,589.536 2908.03,589.536C2960.26,589.536 3000.68,577.1 3031.77,547.253C3061.61,518.65 3069.07,488.804 3069.07,447.143Z" style="fill-rule:nonzero;"/>
            </g>
            <g transform="matrix(3.22708,0,0,3.35065,-3445.42,576.795)">
                <path d="M1410.25,191.665C1410.25,209.451 1392.57,223.307 1372.51,220.486C1377.6,225.272 1390,228.497 1396.6,225.524C1392.82,232.326 1374.73,242 1357.6,237.465C1341.58,233.183 1334.57,217.916 1334.17,208.192C1326.61,215.749 1328.68,228.094 1334.07,232.931C1327.82,231.318 1318.4,224.819 1316.84,213.18C1315.48,203.203 1321.07,191.766 1310.64,182.596C1304.39,177.104 1294.92,169.294 1288.77,164.457C1275.87,154.38 1280.76,146.974 1277.89,141.633C1275.67,137.501 1270.28,135.234 1267.01,131.455C1263.73,127.676 1263.88,122.083 1265.69,118.859C1265.14,123.343 1268.37,126.719 1272.65,128.13C1277.38,129.691 1281.41,128.381 1285.45,130.75C1290.33,133.571 1288.07,141.179 1291.59,143.85C1294.77,146.218 1302.68,143.044 1309.43,148.485C1316.23,153.927 1331.4,166.573 1337.95,171.965C1349.69,181.639 1361.83,170.604 1357.8,159.519C1369.74,166.573 1371.05,186.375 1361.12,193.278C1370.5,195.394 1387.38,191.212 1387.38,177.658C1387.38,169.345 1379.72,163.5 1374.28,162.593C1393.47,160.779 1410.25,174.282 1410.25,191.665M1208.46,88.325C1209.62,83.74 1200.5,75.88 1197.12,74.369C1209.62,73.865 1215.86,76.233 1215.86,76.233C1212.59,71.396 1211.53,64.04 1213.39,58.195C1220.25,74.57 1244.63,77.19 1250.68,90.794C1249.82,84.899 1244.28,78.349 1237.88,74.52C1234.41,65.601 1237.03,49.176 1241.21,44.641C1239.75,68.272 1273.45,81.775 1280.46,98.956C1276.33,84.244 1260.66,74.973 1253.15,66.156C1250.68,60.311 1252.6,50.436 1255.27,47.06C1254.46,62.881 1271.54,75.225 1280.71,84.042C1291.44,94.472 1294.52,103.642 1293.05,111.2C1295.42,111.805 1298.65,114.122 1298.09,118.002C1301.52,117.196 1305.05,113.266 1305.85,110.847C1307.52,122.587 1300.61,135.032 1292.9,138.71C1292.9,138.71 1295.02,133.118 1291.44,128.835C1287.96,124.603 1278.09,124.552 1274.76,124.804C1274.76,124.804 1278.9,118.707 1277.23,115.634C1275.22,111.855 1255.92,113.518 1247.25,116.642C1250.18,116.339 1257.18,117.095 1259.6,118.103C1258.24,120.118 1254.71,128.633 1257.23,131.203C1259.6,133.521 1262.67,129.49 1262.67,129.49C1262.67,129.49 1259.65,138.811 1261.82,140.978C1263.98,143.094 1268.62,141.582 1268.62,141.582C1265.75,148.888 1254.51,153.927 1246.65,153.927C1249.47,153.02 1254.06,148.032 1254.76,145.059C1252.7,146.067 1247.36,146.671 1245.24,146.319C1247.81,145.311 1252.9,138.71 1251.29,131.405C1248.97,120.672 1234,119.312 1226.5,124.502C1228.91,117.297 1236.22,110.545 1241.91,108.328C1238.59,107.169 1234.66,106.162 1230.48,105.406C1235.26,101.476 1247.3,98.301 1253.4,98.604C1244.08,96.185 1226.95,99.158 1219.14,108.429C1221.61,108.429 1228.11,109.638 1230.58,110.444C1219.79,112.409 1205.18,122.386 1200.9,127.122C1202.06,120.924 1203.77,115.634 1202.31,111.905C1200.25,106.665 1193.85,104.448 1181.1,107.068C1189.66,98.352 1207.25,93.011 1208.46,88.325M1282.27,111.049L1281.11,107.22C1281.01,106.817 1278.04,97.495 1268.06,93.868L1262.62,91.852L1264.18,97.445C1265.54,102.232 1268.06,111.049 1278.24,111.049L1282.27,111.049ZM1368.78,100.065C1341.93,101.375 1318.95,124.099 1307.06,140.222C1309.18,140.927 1311.34,141.935 1313.46,143.598C1315.93,145.613 1319.61,148.586 1323.49,151.811C1326.66,144.757 1333.87,130.548 1344.85,117.952C1354.88,106.464 1372.41,105.355 1381.58,112.359C1387.48,107.018 1407.88,101.98 1418.61,105.053C1412.11,97.949 1398.21,88.426 1382.84,88.426C1370.19,88.426 1363.04,94.623 1361.23,91.852C1358.91,88.275 1369.79,82.984 1369.79,82.984C1354.83,83.589 1343.99,101.173 1339.46,99.007C1336.74,97.697 1343.49,89.182 1343.49,89.182C1329.84,97.143 1318.35,113.921 1315.98,124.199C1328.48,108.782 1352.91,97.747 1368.78,100.065M1287.16,171.209C1280.26,182.898 1265.85,197.963 1251.13,197.963C1224.08,197.963 1210.47,159.721 1240.65,128.331C1238.94,127.777 1237.28,127.726 1236.72,127.726C1234.15,127.726 1231.68,128.381 1230.02,129.54L1216.67,141.028L1220.45,122.335C1220.7,121.68 1220.9,121.076 1221.2,120.421C1214.5,123.847 1208,128.533 1205.49,131.253L1193.39,144.404L1194.6,125.812L1195.41,121.731C1196.01,118.859 1196.77,115.231 1196.32,114.072C1196.13,113.716 1195.88,113.406 1195.56,113.165C1189.97,117.498 1174.7,130.951 1172.88,150.954C1172.88,150.954 1175.86,146.772 1178.43,145.764C1180.14,145.109 1181.6,145.966 1179.99,150.954C1179.38,152.919 1164.52,193.026 1193.69,220.838C1193.69,220.838 1190.47,212.676 1192.43,210.207C1193.39,208.998 1194.6,208.897 1196.32,211.064C1197.52,212.726 1198.83,214.339 1200.25,215.9L1200.25,215.951C1202.66,218.722 1205.28,221.292 1208.2,223.509C1216.92,229.605 1228.76,234.543 1242.27,234.543C1278.19,234.543 1297.24,209.955 1307.87,189.096C1307.36,188.491 1307.01,187.886 1306.36,187.332C1301.02,182.545 1293.15,175.995 1287.16,171.209M1206.39,68.171C1205.89,64.14 1206.14,60.009 1207.35,56.28L1212.59,39.905L1219.19,55.726C1221.1,60.311 1225.13,63.687 1229.97,66.76C1229.57,59.152 1230.93,50.687 1233.65,44.893C1233.1,32.65 1241.56,23.479 1251.69,23.479C1269.02,23.479 1273.66,44.44 1265.59,59.455C1269.32,65.098 1275.02,70.287 1280.06,74.822C1281.87,76.434 1283.53,77.996 1285.04,79.407C1285.5,79.911 1285.75,80.314 1286.25,80.767C1293.76,70.59 1299.3,56.331 1299.3,45.599C1299.3,23.328 1284.84,2.67 1254.71,1.008C1235.62,-0 1222.72,5.895 1213.09,15.67C1208.76,20.104 1199.09,31.34 1200.9,51.645C1201.61,59.354 1204.17,64.695 1206.39,68.171" style="fill:rgb(1,1,1);fill-rule:nonzero;"/>
            </g>
            <g id="BM" transform="matrix(0.674825,0.173137,-0.160603,0.674825,1558.63,-115.602)">
                <g transform="matrix(0.271468,0,0,0.281863,3187.6,347.151)">
                    <path d="M217.021,167.042C235.652,157.559 247.309,140.858 244.586,113.035C240.919,75.012 208.06,62.262 166.58,58.631L166.572,5.89L134.433,5.89L134.424,57.244C125.968,57.244 117.348,57.41 108.767,57.582L108.76,5.897L76.65,5.894L76.644,58.622C69.685,58.764 62.851,58.899 56.178,58.899L56.178,58.743L11.848,58.725L11.854,93.007C11.854,93.007 35.588,92.561 35.197,92.994C48.21,93.003 52.459,100.553 53.681,107.07L53.691,167.153L53.691,251.55C53.118,255.64 50.707,262.175 41.608,262.187C42.022,262.551 18.229,262.183 18.229,262.183L11.854,300.518L53.671,300.518C61.463,300.527 69.119,300.648 76.63,300.708L76.658,354.046L108.76,354.055L108.751,301.276C117.583,301.456 126.108,301.534 134.435,301.523L134.426,354.055L166.564,354.055L166.582,300.806C220.604,297.706 258.424,284.109 263.126,233.421C266.916,192.612 247.692,174.396 217.021,167.042ZM109.535,95.321C127.661,95.321 184.667,89.554 184.675,127.385C184.667,163.654 127.679,159.417 109.535,159.417L109.535,95.321ZM109.521,262.447L109.535,191.775C131.313,191.769 199.62,185.514 199.629,227.095C199.638,266.971 131.313,262.431 109.521,262.447Z" style="fill-rule:nonzero;"/>
                </g>
                <g transform="matrix(1.11311,0,0,1.15573,-2390.17,-908.453)">
                    <path d="M5042.11,1063.52C5078.27,1063.52 5107.63,1092.88 5107.63,1129.05C5107.63,1165.21 5078.27,1194.57 5042.11,1194.57C5005.94,1194.57 4976.59,1165.21 4976.59,1129.05C4976.59,1092.88 5005.94,1063.52 5042.11,1063.52ZM5042.11,1071.68C5073.77,1071.68 5099.47,1097.38 5099.47,1129.05C5099.47,1160.71 5073.77,1186.41 5042.11,1186.41C5010.45,1186.41 4984.74,1160.71 4984.74,1129.05C4984.74,1097.38 5010.45,1071.68 5042.11,1071.68Z"/>
                </g>
            </g>
        </g>
    </g>
</svg>
